<svg xmlns="http://www.w3.org/2000/svg" xmlns:xlink="http://www.w3.org/1999/xlink" xmlns:fi="http://pattern.flaticon.com/" x="0" y="0" width="600" height="255" viewBox="0 0 700 297.5"><rect x="0px" y="0px" width="100%" height="100%" opacity="0" fill="#eaffc6"/><defs><g transform="matrix(0.1171872466802597 0 0 0.1171872466802597 20.99999970703186 164)" id="L1_0"><path d="m494.933594 358.398438c.0625-65.917969-53.328125-119.402344-119.242188-119.464844-.074218 0-.148437 0-.222656 0-5.714844.042968-11.417969.496094-17.066406 1.367187v-197.632812c0-4.714844-3.820313-8.535157-8.535156-8.535157h-102.398438v-17.066406c0-9.425781-7.640625-17.066406-17.066406-17.066406h-102.402344c-9.425781 0-17.066406 7.640625-17.066406 17.066406v17.066406h-102.398438c-4.714844 0-8.535156 3.820313-8.535156 8.535157v460.800781c0 4.710938 3.820312 8.53125 8.535156 8.53125h341.332032c4.714843 0 8.535156-3.820312 8.535156-8.53125v-26.964844c50.976562 7.832032 101.132812-18.371094 123.820312-64.691406 8.367188-16.5625 12.722656-34.859375 12.710938-53.414062zm-96.714844 1.835937 11.578125-3.625 65.628906-20.480469c1.625 7.3125 2.445313 14.78125 2.441407 22.269532.011718 13.015624-2.492188 25.910156-7.382813 37.972656zm72.140625-40.429687-90.683594 28.355468-44.699219-83.789062c51.9375-22.382813 112.183594 1.578125 134.566407 53.515625.277343.648437.550781 1.296875.816406 1.949219zm-342.359375-302.738282h102.402344v51.199219h-102.402344zm213.335938 477.867188h-324.269532v-443.734375h93.867188v17.066406c0 9.425781 7.644531 17.066406 17.066406 17.066406h102.402344c9.425781 0 17.066406-7.640625 17.066406-17.066406v-17.066406h93.867188v192.949219c-7.640626 2.199218-15.039063 5.167968-22.085938 8.855468-58.199219 31.023438-80.230469 103.351563-49.207031 161.550782 15.015625 28.175781 40.691406 49.164062 71.292969 58.277343zm34.132812-34.132813c-56.554688-.015625-102.386719-45.875-102.371094-102.429687.011719-34.75 17.640625-67.121094 46.828125-85.976563l48.015625 90.023438.058594.085937c.136719.25.335938.445313.488281.675782.277344.4375.597657.851562.945313 1.238281l.113281.117187c.1875.15625.390625.304688.597656.4375.394531.324219.820313.609375 1.269531.851563.085938.042969.144532.121093.238282.171875l91.1875 45.59375c-18.457032 30.609375-51.625 49.289062-87.371094 49.210937zm0 0" fill="#ec4a81"/><path d="m102.402344 238.933594c37.683594-.042969 68.222656-30.582032 68.265625-68.265625.035156-15.1875-5.042969-29.941407-14.421875-41.882813-23.066406-29.730468-65.863282-35.128906-95.59375-12.0625-5.242188 4.070313-9.867188 8.882813-13.71875 14.289063l6.9375 4.964843-6.945313-4.964843c-21.933593 30.625-14.886719 73.234375 15.738281 95.167969 11.585938 8.296874 25.484376 12.757812 39.738282 12.753906zm50.480468-76.800782h-17.570312c-.4375-1.679687-1.007812-3.324218-1.707031-4.914062l13.878906-10.785156c2.660156 4.894531 4.484375 10.203125 5.398437 15.699218zm-41.949218-41.871093c9.722656 1.640625 18.753906 6.089843 25.976562 12.796875l-13.78125 10.71875c-3.609375-2.828125-7.757812-4.894532-12.195312-6.066406zm4.863281 40.003906c2.355469 2.957031 3.648437 6.621094 3.671875 10.402344 0 9.425781-7.640625 17.066406-17.066406 17.066406-9.425782 0-17.066406-7.640625-17.066406-17.066406-.042969-9.378907 7.523437-17.019531 16.902343-17.0625 5.3125-.023438 10.332031 2.441406 13.558594 6.660156zm-21.929687-39.945313v17.382813c-4.898438 1.28125-9.449219 3.636719-13.328126 6.894531l-14.140624-10.097656c7.480468-7.4375 17.074218-12.386719 27.46875-14.179688zm-37.453126 27.988282 14.234376 10.164062c-1.542969 3.878906-2.351563 8.015625-2.378907 12.195313-.023437 18.8125 15.207031 34.082031 34.019531 34.105469 15.558594.019531 29.15625-10.503907 33.035157-25.574219h17.507812c-4.875 27.855469-31.40625 46.480469-59.261719 41.605469-24.386718-4.273438-42.226562-25.378907-42.367187-50.136719 0-7.753907 1.785156-15.402344 5.210937-22.359375zm0 0" fill="#ec4a81"/><path d="m204.800781 110.933594h110.933594v17.066406h-110.933594zm0 0" fill="#ec4a81"/><path d="m204.800781 145.066406h110.933594v17.066406h-110.933594zm0 0" fill="#ec4a81"/><path d="m204.800781 179.199219h110.933594v17.066406h-110.933594zm0 0" fill="#ec4a81"/><path d="m204.800781 213.332031h59.734375v17.066407h-59.734375zm0 0" fill="#ec4a81"/><path d="m68.269531 418.132812h-25.601562c-4.710938 0-8.535157 3.820313-8.535157 8.535157v42.664062c0 4.714844 3.820313 8.535157 8.535157 8.535157h25.601562c4.710938 0 8.53125-3.820313 8.53125-8.535157v-42.664062c0-4.714844-3.820312-8.535157-8.53125-8.535157zm-8.535156 42.667969h-8.535156v-25.601562h8.535156zm0 0" fill="#ec4a81"/><path d="m119.46875 384h-25.601562c-4.710938 0-8.535157 3.820312-8.535157 8.535156v76.796875c0 4.714844 3.820313 8.535157 8.535157 8.535157h25.601562c4.710938 0 8.53125-3.820313 8.53125-8.535157v-76.796875c0-4.714844-3.820312-8.535156-8.53125-8.535156zm-8.535156 76.800781h-8.535156v-59.734375h8.535156zm0 0" fill="#ec4a81"/><path d="m170.667969 341.332031h-25.601563c-4.710937 0-8.53125 3.820313-8.53125 8.535157v119.464843c0 4.714844 3.820313 8.535157 8.53125 8.535157h25.601563c4.710937 0 8.535156-3.820313 8.535156-8.535157v-119.464843c-.003906-4.714844-3.824219-8.535157-8.535156-8.535157zm-8.535157 119.46875h-8.53125v-102.402343h8.53125zm0 0" fill="#ec4a81"/><path d="m221.867188 298.667969h-25.601563c-4.710937 0-8.53125 3.820312-8.53125 8.53125v162.132812c0 4.714844 3.820313 8.535157 8.53125 8.535157h25.601563c4.714843 0 8.535156-3.820313 8.535156-8.535157v-162.132812c0-4.710938-3.820313-8.53125-8.535156-8.53125zm-8.535157 162.132812h-8.53125v-145.066406h8.53125zm0 0" fill="#ec4a81"/><path d="m34.136719 256h68.265625v17.066406h-68.265625zm0 0" fill="#ec4a81"/><path d="m34.136719 281.601562h68.265625v17.066407h-68.265625zm0 0" fill="#ec4a81"/><path d="m34.136719 307.199219h34.132812v17.066406h-34.132812zm0 0" fill="#ec4a81"/></g><g transform="matrix(0.11718699336051941 0 0 0.11718699336051941 97.99999985351621 26)" id="L1_1"><path d="m196.257812 247.480469h85.328126v17.066406h-85.328126zm0 0" fill="#34b9f5"/><path d="m196.257812 281.609375h51.199219v17.066406h-51.199219zm0 0" fill="#34b9f5"/><path d="m428.070312 420.699219-44.085937-44.132813v-239.050781c0-.1875-.09375-.347656-.113281-.539063-.039063-.742187-.1875-1.476562-.433594-2.183593-.089844-.269531-.191406-.539063-.308594-.800781-.414062-.925782-.992187-1.773438-1.707031-2.5l-128.90625-128.964844c-.738281-.726563-1.605469-1.304688-2.558594-1.707032-.242187-.101562-.484375-.191406-.734375-.265624-.746094-.265626-1.523437-.417969-2.3125-.460938-.160156 0-.308594-.09375-.46875-.09375h-169.644531c-4.710937 0-8.53125 3.820312-8.53125 8.535156v59.730469h-25.597656c-4.714844 0-8.535157 3.820313-8.535157 8.53125v34.132813h-25.597656c-4.710937 0-8.535156 3.820312-8.535156 8.53125v384.007812c0 4.710938 3.820312 8.535156 8.535156 8.535156h290.117188c4.714844 0 8.535156-3.820312 8.535156-8.535156v-34.132812h25.597656c4.714844 0 8.535156-3.820313 8.535156-8.53125v-34.132813h24.132813l28.292969 28.296875c9.128906 9.8125 24.484375 10.371094 34.296875 1.242188 9.816406-9.125 10.371093-24.480469 1.246093-34.292969-.394531-.425781-.796874-.828125-1.21875-1.21875zm-173.054687-391.542969 49.917969 49.917969 49.917968 49.910156h-99.835937zm35.105469 465.777344h-273.054688v-366.914063h17.066406v332.78125c0 4.714844 3.820313 8.535157 8.535157 8.535157h247.453125zm34.132812-42.664063h-273.054687v-366.914062h17.066406v332.785156c0 4.710937 3.820313 8.53125 8.53125 8.53125h247.457031zm-238.921875-42.664062v-392.515625h152.617188v120.425781c0 4.710937 3.820312 8.535156 8.535156 8.535156h120.433594v213.449219l-33.125-33.125c30.089843-53.035156 11.492187-120.417969-41.542969-150.511719-53.035156-30.089843-120.421875-11.488281-150.511719 41.546875-30.089843 53.035156-11.488281 120.417969 41.542969 150.511719 37.066406 21.027344 82.921875 18.847656 117.824219-5.597656l47.28125 47.28125zm152.738281-44.371094c-51.367187 0-93.007812-41.640625-93.007812-93.011719 0-51.367187 41.640625-93.007812 93.007812-93.007812 51.367188 0 93.007813 41.640625 93.007813 93.007812-.0625 51.34375-41.667969 92.949219-93.007813 93.011719zm172.84375 79.78125c-1.921874.015625-3.769531-.746094-5.121093-2.113281l-90.382813-90.398438 10.191406-10.1875 41.316407 41.316406v.375h.375l48.714843 48.714844c2.8125 2.8125 2.8125 7.371094 0 10.183594-1.355468 1.359375-3.199218 2.121094-5.121093 2.113281h.027343zm0 0" fill="#34b9f5"/><path d="m238.070312 191.164062c-44.769531 0-81.0625 36.289063-81.0625 81.058594 0 44.773438 36.292969 81.0625 81.0625 81.0625 44.769532 0 81.0625-36.289062 81.0625-81.0625-.050781-44.746094-36.316406-81.007812-81.0625-81.058594zm0 145.058594c-35.34375 0-63.996093-28.652344-63.996093-63.996094s28.652343-63.996093 63.996093-63.996093 63.996094 28.652343 63.996094 63.996093c-.039062 35.328126-28.667968 63.957032-63.996094 63.996094zm0 0" fill="#34b9f5"/></g><g transform="matrix(0.11718699336051941 0 0 0.11718699336051941 209 120)" id="L1_2"><path d="m486.402344 0h-460.800782c-14.140624 0-25.601562 11.460938-25.601562 25.601562v349.867188c0 14.136719 11.460938 25.597656 25.601562 25.597656h150.296876l-19.90625 59.734375h-87.722657c-4.714843 0-8.535156 3.820313-8.535156 8.535157v34.132812c0 4.710938 3.820313 8.535156 8.535156 8.535156h392.53125c4.710938 0 8.535157-3.820312 8.535157-8.535156v-34.132812c0-4.714844-3.820313-8.535157-8.535157-8.535157h-104.789062l-19.910157-59.734375h150.300782c14.136718 0 25.597656-11.460937 25.597656-25.597656v-349.867188c0-14.140624-11.460938-25.601562-25.597656-25.601562zm-469.335938 25.601562c0-4.714843 3.820313-8.535156 8.535156-8.535156h460.800782c4.710937 0 8.535156 3.820313 8.535156 8.535156v8.53125h-477.871094zm477.867188 25.597657v264.535156h-477.867188v-264.535156zm-42.667969 443.734375h-375.464844v-17.066406h375.46875v17.066406zm-114.242187-34.132813h-164.042969l19.90625-59.734375h124.226562zm156.910156-85.332031c0 4.710938-3.820313 8.53125-8.53125 8.53125h-460.800782c-4.710937 0-8.535156-3.820312-8.535156-8.53125v-42.667969h477.867188zm0 0" fill="#f5685d"/><path d="m136.535156 298.667969h34.132813c4.710937 0 8.535156-3.820313 8.535156-8.535157v-93.867187c0-4.710937-3.824219-8.53125-8.535156-8.53125h-34.132813c-4.714844 0-8.535156 3.820313-8.535156 8.53125v93.867187c0 4.714844 3.820312 8.535157 8.535156 8.535157zm8.53125-93.867188h17.066406v76.800781h-17.066406zm0 0" fill="#f5685d"/><path d="m204.800781 298.667969h34.132813c4.710937 0 8.535156-3.820313 8.535156-8.535157v-136.53125c0-4.714843-3.820312-8.535156-8.535156-8.535156h-34.132813c-4.710937 0-8.535156 3.820313-8.535156 8.535156v136.53125c.003906 4.714844 3.824219 8.535157 8.535156 8.535157zm8.535157-136.535157h17.066406v119.46875h-17.066406zm0 0" fill="#f5685d"/><path d="m273.066406 298.667969h34.132813c4.714843 0 8.535156-3.820313 8.535156-8.535157v-170.664062c0-4.714844-3.820313-8.535156-8.535156-8.535156h-34.132813c-4.710937 0-8.53125 3.820312-8.53125 8.535156v170.664062c0 4.714844 3.820313 8.535157 8.53125 8.535157zm8.535156-170.667969h17.066407v153.601562h-17.066407zm0 0" fill="#f5685d"/><path d="m341.335938 298.667969h34.132812c4.710938 0 8.53125-3.820313 8.53125-8.535157v-213.332031c0-4.710937-3.820312-8.535156-8.53125-8.535156h-34.132812c-4.714844 0-8.535157 3.820313-8.535157 8.535156v213.332031c0 4.714844 3.820313 8.535157 8.535157 8.535157zm8.53125-213.335938h17.066406v196.269531h-17.066406zm0 0" fill="#f5685d"/><path d="m34.132812 68.265625h85.335938v17.066406h-85.335938zm0 0" fill="#f5685d"/><path d="m34.132812 102.398438h85.335938v17.066406h-85.335938zm0 0" fill="#f5685d"/><path d="m34.132812 136.53125h42.667969v17.070312h-42.667969zm0 0" fill="#f5685d"/><path d="m426.667969 213.332031h51.199219v17.066407h-51.199219zm0 0" fill="#f5685d"/><path d="m426.667969 247.464844h51.199219v17.070312h-51.199219zm0 0" fill="#f5685d"/><path d="m426.667969 281.601562h51.199219v17.066407h-51.199219zm0 0" fill="#f5685d"/><path d="m247.46875 349.867188h17.066406v17.066406h-17.066406zm0 0" fill="#f5685d"/></g><path d="m480 0h-464c-8.824219 0-16 7.175781-16 16v288c0 8.824219 7.175781 16 16 16h464c8.824219 0 16-7.175781 16-16v-288c0-8.824219-7.175781-16-16-16zm-464 304v-288h464l.007812 288zm16-16h432v-256h-432zm16-240h400v224h-400zm368 16h16v16h-16zm-336 16h-16v-16h16zm336 160h16v16h-16zm-352 0h16v16h-16zm24-96v32c0 13.230469 10.769531 24 24 24s24-10.769531 24-24h16c0 22.054688-17.945312 40-40 40s-40-17.945312-40-40v-32c0-22.054688 17.945312-40 40-40s40 17.945312 40 40h-16c0-13.230469-10.769531-24-24-24s-24 10.769531-24 24zm128 24h-48v-16h48zm64-40v16c0 6.167969-2.40625 11.742188-6.238281 16 3.839843 4.257812 6.238281 9.832031 6.238281 16v16c0 13.230469-10.769531 24-24 24h-40v-16h40c4.414062 0 8-3.59375 8-8v-16c0-4.40625-3.585938-8-8-8h-24v-16h24c4.414062 0 8-3.59375 8-8v-16c0-4.40625-3.585938-8-8-8h-40v-16h40c13.230469 0 24 10.769531 24 24zm66.34375 40.96875-31.03125 31.03125h44.6875v16h-64v-19.3125l39.03125-39.03125c5.785156-5.785156 8.96875-13.480469 8.96875-21.65625 0-8.824219-7.175781-16-16-16s-16 7.175781-16 16v8h-16v-8c0-17.648438 14.351562-32 32-32s32 14.351562 32 32c0 12.457031-4.847656 24.167969-13.65625 32.96875zm77.65625 47.03125h-48v-16h16v-80h-16v-16h32v96h16zm0 0" transform="matrix(0.0847073201695766 -0.06776585821709022 0.06776585821709022 0.0847073201695766 153.1500463891409 267.6075997435644)" fill="#000000" id="L1_4"/><path d="m244.183594 360h-25.136719l21.792969-43.574219 14.3125 7.160157-10.207032 20.414062h22.863282l-20.382813 50.976562-14.859375-5.945312zm171.816406-216v32h16c8.824219 0 16 7.175781 16 16v32c0 8.824219-7.175781 16-16 16v208c8.824219 0 16 7.175781 16 16v32h-400v-32c0-8.824219 7.175781-16 16-16v-208c-8.824219 0-16-7.175781-16-16v-32c0-8.824219 7.175781-16 16-16h16v-32c0-8.824219 7.175781-16 16-16h32c8.824219 0 16 7.175781 16 16v32h32v-16c0-8.824219 7.175781-16 16-16h32c8.824219 0 16 7.175781 16 16v16h16v-16c0-8.824219 7.175781-16 16-16h32c8.824219 0 16 7.175781 16 16v16h32v-32c0-8.824219 7.175781-16 16-16h32c8.824219 0 16 7.175781 16 16zm-48 32h32v-32h-32zm-96 0h32v-16h-32zm-80 0h32v-16h-32zm-96 0h32v-32h-32zm320 64h-336v208h32v16h-48v16h368v-16h-48v-16h32zm16-48h-368v32h368.007812zm-280 211.566406c0-3.832031 1.070312-7.574218 3.105469-10.832031l73.871093-118.191406c4.128907-6.597657 11.238282-10.542969 19.023438-10.542969s14.894531 3.945312 19.023438 10.542969l73.863281 118.191406c2.042969 3.257813 3.113281 7 3.113281 10.832031 0 11.265625-9.167969 20.433594-20.441406 20.433594h-151.117188c-11.273437 0-20.441406-9.167969-20.441406-20.433594zm16 0c0 2.441406 1.992188 4.433594 4.441406 4.433594h151.125c2.441406 0 4.433594-1.992188 4.433594-4.433594 0-.832031-.230469-1.644531-.679688-2.351562l-73.855468-118.191406c-1.191406-1.886719-3.234375-3.023438-5.464844-3.023438s-4.273438 1.136719-5.464844 3.023438l-73.863281 118.183593c-.441406.714844-.671875 1.527344-.671875 2.359375zm200 44.433594h-240v16h240zm128-392c0 30.878906-25.128906 56-56 56-28.152344 0-51.457031-20.902344-55.359375-48h-24.640625v-16h24.640625c3.902344-27.097656 27.207031-48 55.359375-48 30.871094 0 56 25.121094 56 56zm-16 0c0-22.054688-17.945312-40-40-40s-40 17.945312-40 40 17.945312 40 40 40 40-17.945312 40-40zm-32-24h-16v16h-16v16h16v16h16v-16h16v-16h-16zm-448 24c0-30.878906 25.128906-56 56-56 28.152344 0 51.457031 20.902344 55.359375 48h77.585937l10.007813 20.007812 25.167969-67.105468 32.496094 89.363281 18.109374-42.265625h37.273438v16h-26.726562l-29.882813 69.726562-31.503906-86.636718-22.832031 60.894531-22-43.984375h-67.695313c-3.902344 27.097656-27.207031 48-55.359375 48-30.871094 0-56-25.121094-56-56zm16 0c0 22.054688 17.945312 40 40 40s40-17.945312 40-40-17.945312-40-40-40-40 17.945312-40 40zm64-8h-48v16h48zm248 0v16h16v-16zm0 0" transform="matrix(0.07983463618943858 0.031363607738713654 -0.031363607738713654 0.07983463618943858 307.97918405015054 22.422834611748574)" fill="#b39c85" id="L1_5"/></defs><g fi:class="KUsePattern"><pattern id="pattern_L1_0" width="350" height="350" patternUnits="userSpaceOnUse"><use xlink:href="#L1_0" x="-350" y="-350"/><use xlink:href="#L1_0" x="0" y="-350"/><use xlink:href="#L1_0" x="350" y="-350"/><use xlink:href="#L1_0" x="-350" y="0"/><use xlink:href="#L1_0" x="0" y="0"/><use xlink:href="#L1_0" x="350" y="0"/><use xlink:href="#L1_0" x="-350" y="350"/><use xlink:href="#L1_0" x="0" y="350"/><use xlink:href="#L1_0" x="350" y="350"/></pattern><rect x="0" y="0" width="100%" height="100%" fill="url(#pattern_L1_0)"/></g><g fi:class="KUsePattern"><pattern id="pattern_L1_1" width="350" height="350" patternUnits="userSpaceOnUse"><use xlink:href="#L1_1" x="-350" y="-350"/><use xlink:href="#L1_1" x="0" y="-350"/><use xlink:href="#L1_1" x="350" y="-350"/><use xlink:href="#L1_1" x="-350" y="0"/><use xlink:href="#L1_1" x="0" y="0"/><use xlink:href="#L1_1" x="350" y="0"/><use xlink:href="#L1_1" x="-350" y="350"/><use xlink:href="#L1_1" x="0" y="350"/><use xlink:href="#L1_1" x="350" y="350"/></pattern><rect x="0" y="0" width="100%" height="100%" fill="url(#pattern_L1_1)"/></g><g fi:class="KUsePattern"><pattern id="pattern_L1_2" width="350" height="350" patternUnits="userSpaceOnUse"><use xlink:href="#L1_2" x="-350" y="-350"/><use xlink:href="#L1_2" x="0" y="-350"/><use xlink:href="#L1_2" x="350" y="-350"/><use xlink:href="#L1_2" x="-350" y="0"/><use xlink:href="#L1_2" x="0" y="0"/><use xlink:href="#L1_2" x="350" y="0"/><use xlink:href="#L1_2" x="-350" y="350"/><use xlink:href="#L1_2" x="0" y="350"/><use xlink:href="#L1_2" x="350" y="350"/></pattern><rect x="0" y="0" width="100%" height="100%" fill="url(#pattern_L1_2)"/></g><g fi:class="KUsePattern"><pattern id="pattern_L1_4" width="350" height="350" patternUnits="userSpaceOnUse"><use xlink:href="#L1_4" x="-350" y="-350"/><use xlink:href="#L1_4" x="0" y="-350"/><use xlink:href="#L1_4" x="350" y="-350"/><use xlink:href="#L1_4" x="-350" y="0"/><use xlink:href="#L1_4" x="0" y="0"/><use xlink:href="#L1_4" x="350" y="0"/><use xlink:href="#L1_4" x="-350" y="350"/><use xlink:href="#L1_4" x="0" y="350"/><use xlink:href="#L1_4" x="350" y="350"/></pattern><rect x="0" y="0" width="100%" height="100%" fill="url(#pattern_L1_4)"/></g><g fi:class="KUsePattern"><pattern id="pattern_L1_5" width="350" height="350" patternUnits="userSpaceOnUse"><use xlink:href="#L1_5" x="-350" y="-350"/><use xlink:href="#L1_5" x="0" y="-350"/><use xlink:href="#L1_5" x="350" y="-350"/><use xlink:href="#L1_5" x="-350" y="0"/><use xlink:href="#L1_5" x="0" y="0"/><use xlink:href="#L1_5" x="350" y="0"/><use xlink:href="#L1_5" x="-350" y="350"/><use xlink:href="#L1_5" x="0" y="350"/><use xlink:href="#L1_5" x="350" y="350"/></pattern><rect x="0" y="0" width="100%" height="100%" fill="url(#pattern_L1_5)"/></g></svg>